# xmcd
#
# Track frame offsets: 
#        150
#        34078
#        60728
#        89809
#        112410
#        139217
#        165130
#        192189
#        223434
#        258064
#        275944
#
# Disc length: 4059 seconds
#
# Revision: 0
# Processed by: cddbd v1.5.2PL0 Copyright (c) Steve Scherf et al.
# Submitted via: ExactAudioCopy v1.0b3
#
DISCID=af0fd90b
DTITLE=Various Artist - Clubbers Nation Vol. 1 - CD 1
DYEAR=1900
DGENRE=
TTITLE0=Breeezze Feat. DJ Peran - Out Of My Life (Club Mix)
TTITLE1=Mario Lopez Vs. DJ Headhunter - What Are You Looking 4 (DJ Hea
TTITLE1=dhunter Vs. G-Dor Mix)
TTITLE2=Steve Burnette - Spanked (DJ Transformer Rmx)
TTITLE3=Rozzy Bell - That Sound (Xtd Mix)
TTITLE4=Firestarter - Kick Some Ass
TTITLE5=666 - Rhythm Takes Control (M.A.D.R.A.S. Rmx)
TTITLE6=Smokejumper - La Vache (Club Mix)
TTITLE7=Buffy - Gypsy Woman (Factory Hall Mix)
TTITLE8=Philip D. - The Robbots (Trance Rmx)
TTITLE9=Lac Terra - Pure Stuff (Radio Rmx)
TTITLE10=Benny Benassi - Able To Love (G.-Freaks Porno's Mix)
EXTD=
EXTT0=
EXTT1=
EXTT2=
EXTT3=
EXTT4=
EXTT5=
EXTT6=
EXTT7=
EXTT8=
EXTT9=
EXTT10=
PLAYORDER=
